<svg width="24" height="24" viewBox="0 0 24 24" fill="none" xmlns="http://www.w3.org/2000/svg">
<path d="M12 19C12.5523 19 13 19.4477 13 20V21C13 21.5523 12.5523 22 12 22C11.4477 22 11 21.5523 11 21V20C11 19.4477 11.4477 19 12 19ZM18.364 16.9498L19.0711 17.6569C19.4616 18.0474 19.4616 18.6805 19.0711 19.0711C18.6806 19.4616 18.0474 19.4616 17.6569 19.0711L16.9498 18.364C16.5593 17.9734 16.5593 17.3403 16.9498 16.9498C17.3403 16.5592 17.9735 16.5592 18.364 16.9498ZM5.63598 16.9498C6.02651 16.5592 6.65968 16.5592 7.0502 16.9498C7.41068 17.3103 7.43841 17.8775 7.13339 18.2698L7.0502 18.364L6.34309 19.0711C5.95257 19.4616 5.3194 19.4616 4.92888 19.0711C4.56839 18.7106 4.54066 18.1434 4.84569 17.7511L4.92888 17.6569L5.63598 16.9498ZM12 6C15.3137 6 18 8.68629 18 12C18 15.3137 15.3137 18 12 18C8.68629 18 6 15.3137 6 12C6 8.68629 8.68629 6 12 6ZM4 11C4.55228 11 5 11.4477 5 12C5 12.5128 4.61396 12.9355 4.11662 12.9933L4 13H3C2.44772 13 2 12.5523 2 12C2 11.4872 2.38604 11.0645 2.88338 11.0067L3 11H4ZM21 11C21.5523 11 22 11.4477 22 12C22 12.5523 21.5523 13 21 13H20C19.4477 13 19 12.5523 19 12C19 11.4477 19.4477 11 20 11H21ZM4.92891 4.92888C5.28939 4.5684 5.85662 4.54067 6.24891 4.84569L6.34312 4.92888L7.05023 5.63599C7.44075 6.02651 7.44075 6.65968 7.05023 7.0502C6.68974 7.41068 6.12251 7.43841 5.73022 7.13339L5.63601 7.0502L4.92891 6.34309C4.53838 5.95257 4.53838 5.3194 4.92891 4.92888ZM19.0711 4.9289C19.4616 5.31942 19.4616 5.95259 19.0711 6.34311L18.364 7.05022C17.9734 7.44074 17.3403 7.44074 16.9498 7.05022C16.5592 6.65969 16.5592 6.02653 16.9498 5.636L17.6569 4.9289C18.0474 4.53837 18.6805 4.53837 19.0711 4.9289ZM12 2C12.5523 2 13 2.44772 13 3V4C13 4.55228 12.5523 5 12 5C11.4477 5 11 4.55228 11 4V3C11 2.44772 11.4477 2 12 2Z" fill="#FFC548"/>
</svg>
