<svg width="24" height="24" viewBox="0 0 24 24" fill="none" xmlns="http://www.w3.org/2000/svg">
<path d="M11 6C13.6623 6 15.9179 7.73309 16.7033 10.1322C19.1625 10.6813 21 12.8756 21 15.5C21 18.4635 18.6563 20.8795 15.7212 20.9956L15.5 21H6.5C4.01472 21 2 18.9853 2 16.5C2 14.5384 3.2545 12.8708 5.00531 12.2544C5.00178 12.17 5 12.0852 5 12C5 8.68629 7.68629 6 11 6Z" fill="white"/>
<path d="M16.0003 3C19.314 3 22.0003 5.68629 22.0003 9C22.0003 10.1679 21.6666 11.2578 21.0894 12.1797C20.2818 10.8231 18.9942 9.78544 17.461 9.30094C16.4669 6.92421 14.1996 5.21247 11.5117 5.0184C12.6108 3.78022 14.2144 3 16.0003 3Z" fill="#FFC548"/>
</svg>
