<svg width="24" height="24" viewBox="0 0 24 24" fill="none" xmlns="http://www.w3.org/2000/svg">
<path fill-rule="evenodd" clip-rule="evenodd" d="M7.91094 6.91094C8.73318 4.91015 10.7008 3.5 13 3.5C15.3854 3.5 17.4143 5.01773 18.1771 7.13953C20.3709 7.66911 22 9.6438 22 12C22 14.1645 20.6254 16.0059 18.7024 16.7024C18.0059 18.6254 16.1644 20 14 20H6.35994C3.952 20 2 18.0479 2 15.64C2 13.8932 3.02663 12.388 4.50848 11.6918C4.62804 9.52611 6.00014 7.6962 7.91094 6.91094ZM10.5253 6.52475C12.6798 6.72881 14.471 8.17534 15.1771 10.1395C17.1436 10.6142 18.6564 12.2502 18.9487 14.2812C19.5922 13.7306 20 12.9124 20 12C20 10.4431 18.8133 9.16222 17.2958 9.01432C16.8652 8.97236 16.5105 8.65833 16.4166 8.23607C16.0685 6.67018 14.6697 5.5 13 5.5C12.0343 5.5 11.159 5.8914 10.5253 6.52475Z" fill="white"/>
</svg>
