<svg width="24" height="24" viewBox="0 0 24 24" fill="none" xmlns="http://www.w3.org/2000/svg">
<path d="M10.9241 15.7922C11.0671 15.2587 11.6154 14.9422 12.1489 15.0851C12.6823 15.228 12.9989 15.7764 12.856 16.3098L12.5972 17.2758C12.4542 17.8092 11.9059 18.1258 11.3724 17.9829C10.8389 17.8399 10.5224 17.2916 10.6653 16.7581L10.9241 15.7922ZM11.8207 20.1736C11.9636 19.6401 11.6471 19.0917 11.1136 18.9488C10.5801 18.8059 10.0318 19.1224 9.88884 19.6559L9.63003 20.6218C9.48708 21.1553 9.80367 21.7036 10.3371 21.8466C10.8706 21.9895 11.4189 21.6729 11.5619 21.1395L11.8207 20.1736Z" fill="#60C6FF"/>
<path d="M11.5 2C14.2856 2 16.66 3.75154 17.5856 6.21198C20.13 6.90766 22 9.23462 22 12C22 15.3137 19.3137 18 16 18H14.4657C14.4891 17.9324 14.5102 17.8636 14.529 17.7934L14.7878 16.8275C15.2167 15.2271 14.2669 13.5821 12.6665 13.1533C11.0661 12.7244 9.4211 13.6742 8.99228 15.2746L8.73346 16.2405C8.59203 16.7683 8.60055 17.301 8.7329 17.7933C8.66706 17.859 8.60411 17.928 8.54434 18H7C4.23858 18 2 15.7614 2 13C2 10.9486 3.23468 9.18749 5.00053 8.41614C5.04543 4.86494 7.93814 2 11.5 2Z" fill="white"/>
</svg>
