<svg width="24" height="24" viewBox="0 0 24 24" fill="none" xmlns="http://www.w3.org/2000/svg">
<path d="M9.10382 18.9488C9.63729 19.0917 9.95387 19.6401 9.81093 20.1735L9.55211 21.1395C9.40917 21.6729 8.86083 21.9895 8.32736 21.8466C7.7939 21.7036 7.47731 21.1553 7.62026 20.6218L7.87907 19.6559C8.02202 19.1224 8.57035 18.8059 9.10382 18.9488ZM13.7735 17.7935C14.307 17.9365 14.6236 18.4848 14.4806 19.0183L14.2218 19.9842C14.0789 20.5177 13.5305 20.8343 12.9971 20.6913C12.4636 20.5484 12.147 20 12.2899 19.4666L12.5488 18.5006C12.6917 17.9672 13.24 17.6506 13.7735 17.7935ZM10.1391 15.0851C10.6725 15.228 10.9891 15.7764 10.8462 16.3098L10.5873 17.2758C10.4444 17.8092 9.8961 18.1258 9.36264 17.9829C8.82917 17.8399 8.51259 17.2916 8.65553 16.7581L8.91435 15.7922C9.05729 15.2587 9.60563 14.9422 10.1391 15.0851ZM14.8088 13.9298C15.3423 14.0728 15.6588 14.6211 15.5159 15.1546L15.2571 16.1205C15.1141 16.654 14.5658 16.9705 14.0323 16.8276C13.4989 16.6847 13.1823 16.1363 13.3252 15.6029L13.584 14.6369C13.727 14.1035 14.2753 13.7869 14.8088 13.9298Z" fill="#60C6FF"/>
<path d="M11.5 2C14.2856 2 16.66 3.75154 17.5856 6.21198C20.13 6.90766 22 9.23462 22 12C22 15.1747 19.5344 17.7735 16.4136 17.986C16.7737 17.623 17.0474 17.166 17.1888 16.6381L17.4476 15.6722C17.8764 14.0718 16.9267 12.4268 15.3263 11.998C13.8597 11.605 12.3556 12.3697 11.7844 13.732C11.4639 13.4685 11.0834 13.2676 10.6566 13.1533C9.05616 12.7244 7.41115 13.6742 6.98233 15.2746L6.72351 16.2405C6.58208 16.7683 6.5906 17.301 6.72295 17.7933C6.66319 17.8529 6.60582 17.9153 6.55104 17.9801C3.99996 17.7531 2 15.6101 2 13C2 10.9486 3.23468 9.18749 5.00053 8.41614C5.04543 4.86494 7.93814 2 11.5 2Z" fill="white"/>
</svg>
