<svg width="24" height="24" viewBox="0 0 24 24" fill="none" xmlns="http://www.w3.org/2000/svg">
<path d="M11.5 2C14.2856 2 16.66 3.75154 17.5856 6.21198C20.13 6.90766 22 9.23462 22 12C22 14.6387 20.2967 16.8795 17.9296 17.683C18.1608 17.3805 18.3379 17.0287 18.4425 16.6382L18.7013 15.6722C19.1301 14.0718 18.1804 12.4268 16.58 11.998C15.2516 11.6421 13.8925 12.2359 13.2237 13.3632C13.0486 13.2765 12.8624 13.2058 12.6664 13.1533C12.0783 12.9957 11.4843 13.0242 10.9467 13.2028C10.5564 12.6312 9.96742 12.1912 9.24641 11.998C7.64601 11.5692 6.001 12.5189 5.57217 14.1193L5.31335 15.0852C5.17193 15.613 5.18044 16.1457 5.31279 16.638C5.07803 16.8724 4.88013 17.1478 4.73156 17.457C3.11029 16.6302 2 14.9448 2 13C2 10.9486 3.23468 9.18749 5.00053 8.41614C5.04543 4.86494 7.93814 2 11.5 2Z" fill="white"/>
<path d="M9.88892 19.6559C10.0319 19.1224 10.5802 18.8059 11.1137 18.9488C11.6471 19.0917 11.9637 19.6401 11.8208 20.1736L11.562 21.1395C11.419 21.6729 10.8707 21.9895 10.3372 21.8466C9.80374 21.7036 9.48716 21.1553 9.6301 20.6218L9.88892 19.6559ZM7.69367 17.7935C8.22713 17.9365 8.54372 18.4848 8.40077 19.0183L8.14196 19.9842C7.99901 20.5177 7.45068 20.8343 6.91721 20.6913C6.38374 20.5484 6.06716 20 6.2101 19.4666L6.46892 18.5006C6.61186 17.9672 7.1602 17.6506 7.69367 17.7935ZM15.0273 17.7935C15.5607 17.9365 15.8773 18.4848 15.7344 19.0183L15.4755 19.9842C15.3326 20.5177 14.7843 20.8343 14.2508 20.6913C13.7173 20.5484 13.4008 20 13.5437 19.4666L13.8025 18.5006C13.9455 17.9672 14.4938 17.6506 15.0273 17.7935ZM12.1489 15.0851C12.6824 15.228 12.999 15.7764 12.856 16.3098L12.5972 17.2758C12.4543 17.8092 11.906 18.1258 11.3725 17.9829C10.839 17.8399 10.5224 17.2916 10.6654 16.7581L10.9242 15.7922C11.0671 15.2587 11.6155 14.9422 12.1489 15.0851ZM8.72894 13.9298C9.26241 14.0728 9.57899 14.6211 9.43605 15.1546L9.17723 16.1205C9.03429 16.654 8.48595 16.9706 7.95249 16.8276C7.41902 16.6847 7.10244 16.1363 7.24538 15.6029L7.5042 14.6369C7.64714 14.1035 8.19548 13.7869 8.72894 13.9298ZM16.0625 13.9298C16.596 14.0728 16.9126 14.6211 16.7696 15.1546L16.5108 16.1205C16.3679 16.654 15.8195 16.9706 15.2861 16.8276C14.7526 16.6847 14.436 16.1363 14.579 15.6029L14.8378 14.6369C14.9807 14.1035 15.5291 13.7869 16.0625 13.9298Z" fill="#60C6FF"/>
</svg>
