<svg width="24" height="24" viewBox="0 0 24 24" fill="none" xmlns="http://www.w3.org/2000/svg">
<path d="M11.5 2C14.2856 2 16.66 3.75154 17.5856 6.21198C20.13 6.90766 22 9.23462 22 12C22 13.9686 21.0519 15.7158 19.5874 16.8099L19.6143 16.7246L19.8977 15.6721C20.3265 14.0717 19.3768 12.4267 17.7764 11.9979C16.7165 11.7139 15.6371 12.0345 14.9043 12.7484C14.7086 11.9925 14.2198 11.3133 13.4884 10.8953C12.0498 10.0733 10.2172 10.5731 9.39522 12.0116L9.08877 12.5479C8.77583 12.2985 8.4076 12.1081 7.99641 11.9979C6.39601 11.5691 4.751 12.5188 4.32217 14.1192L4.06335 15.0851C3.92193 15.6129 3.93044 16.1456 4.0628 16.6379C3.98636 16.7142 3.91382 16.7949 3.84563 16.8796C2.7194 15.9628 2 14.5654 2 13C2 10.9486 3.23468 9.18749 5.00053 8.41614C5.04543 4.86494 7.93814 2 11.5 2Z" fill="white"/>
<path d="M12.4962 12.6318C12.9758 12.9058 13.1424 13.5166 12.8683 13.9961L11.7233 16H12.8278C13.6724 16 14.2019 16.9124 13.7828 17.6458L11.8683 20.9961C11.5943 21.4757 10.9835 21.6423 10.504 21.3682C10.0244 21.0942 9.85786 20.4834 10.1319 20.0039L11.2769 18H10.1724C9.32783 18 8.79832 17.0876 9.21736 16.3542L11.1319 13.0039C11.4059 12.5243 12.0167 12.3577 12.4962 12.6318Z" fill="#FFC548"/>
<path d="M14.9989 18.5006C15.1418 17.9672 15.6902 17.6506 16.2236 17.7935C16.7571 17.9365 17.0737 18.4848 16.9307 19.0183L16.6719 19.9842C16.529 20.5177 15.9806 20.8343 15.4472 20.6913C14.9137 20.5484 14.5971 20 14.7401 19.4666L14.9989 18.5006ZM5.21892 18.5006C5.36186 17.9672 5.9102 17.6506 6.44366 17.7935C6.97713 17.9365 7.29371 18.4848 7.15077 19.0183L6.89195 19.9842C6.74901 20.5177 6.20067 20.8343 5.66721 20.6913C5.13374 20.5484 4.81716 20 4.9601 19.4666L5.21892 18.5006ZM17.2589 13.9298C17.7924 14.0728 18.1089 14.6211 17.966 15.1546L17.7072 16.1205C17.5642 16.654 17.0159 16.9705 16.4824 16.8276C15.949 16.6847 15.6324 16.1363 15.7753 15.6029L16.0342 14.6369C16.1771 14.1035 16.7254 13.7869 17.2589 13.9298ZM7.47894 13.9298C8.01241 14.0728 8.32899 14.6211 8.18605 15.1546L7.92723 16.1205C7.78429 16.654 7.23595 16.9706 6.70248 16.8276C6.16902 16.6847 5.85243 16.1363 5.99538 15.6029L6.25419 14.6369C6.39714 14.1035 6.94547 13.7869 7.47894 13.9298Z" fill="#60C6FF"/>
</svg>
