<svg width="24" height="24" viewBox="0 0 24 24" fill="none" xmlns="http://www.w3.org/2000/svg">
<path d="M5.00084 8.41609C5.04576 4.86491 7.93846 2 11.5003 2C14.2859 2 16.6602 3.75154 17.5858 6.21198C20.1303 6.90766 22.0003 9.23462 22.0003 12C22.0003 12.2018 21.9903 12.4016 21.9707 12.5988C21.9199 13.1103 21.4896 13.5 20.9756 13.5H3.03125C2.74447 13.5 2.47149 13.3769 2.28167 13.1619C2.09185 12.9469 2.00345 12.6608 2.03894 12.3763C2.261 10.5955 3.41685 9.10784 5.00084 8.41609ZM3.00024 16C3.00024 15.4477 3.44796 15 4.00024 15H20.0002C20.5525 15 21.0002 15.4477 21.0002 16C21.0002 16.5523 20.5525 17 20.0002 17H4.00024C3.44796 17 3.00024 16.5523 3.00024 16ZM8.00024 19C7.44796 19 7.00024 19.4477 7.00024 20C7.00024 20.5523 7.44796 21 8.00024 21H17.0002C17.5525 21 18.0002 20.5523 18.0002 20C18.0002 19.4477 17.5525 19 17.0002 19H8.00024Z" fill="white"/>
</svg>
