<svg width="24" height="24" viewBox="0 0 24 24" fill="none" xmlns="http://www.w3.org/2000/svg">
<path d="M9.00011 16C9.55239 16 10.0001 16.4477 10.0001 17V17.268L10.2322 17.134C10.7105 16.8578 11.3221 17.0217 11.5982 17.5C11.8743 17.9783 11.7105 18.5899 11.2322 18.866L11.0001 19L11.2322 19.1339C11.7105 19.4101 11.8743 20.0217 11.5982 20.5C11.3221 20.9783 10.7105 21.1421 10.2322 20.866L10.0001 20.732V21C10.0001 21.5523 9.55239 22 9.00011 22C8.44783 22 8.00011 21.5523 8.00011 21V20.7321L7.76809 20.866C7.2898 21.1422 6.67821 20.9783 6.40205 20.5C6.1259 20.0217 6.28977 19.4101 6.76805 19.134L7.00014 19L6.76807 18.866C6.28977 18.5899 6.1259 17.9783 6.40204 17.5C6.67818 17.0217 7.28977 16.8578 7.76807 17.1339L8.00011 17.2679V17C8.00011 16.4477 8.44783 16 9.00011 16ZM11.5 2C14.2856 2 16.66 3.75154 17.5856 6.21198C20.13 6.90766 22 9.23462 22 12C22 15.2333 19.4426 17.8692 16.2402 17.9953L16.2802 17.9495C17.1121 17.7945 17.8737 17.2903 18.33 16.5C18.7863 15.7096 18.8421 14.798 18.5604 14C18.8421 13.202 18.7863 12.2904 18.33 11.5001C17.8737 10.7097 17.1121 10.2055 16.2802 10.0505C15.7299 9.4075 14.9125 9 13.9999 9C13.0873 9 12.2699 9.40748 11.7196 10.0504C10.8877 10.2055 10.1261 10.7096 9.66976 11.5C9.21345 12.2903 9.15764 13.202 9.43936 14L9.42879 14.0304C9.28871 14.0104 9.14551 14 8.99988 14C8.08728 14 7.26986 14.4075 6.71963 15.0504C5.88769 15.2055 5.12607 15.7096 4.66976 16.5C4.53089 16.7405 4.42911 16.9923 4.36265 17.2487C2.94422 16.3663 2 14.7934 2 13C2 10.9486 3.23468 9.18749 5.00053 8.41614C5.04543 4.86494 7.93814 2 11.5 2ZM14.0001 11C14.5524 11 15.0001 11.4477 15.0001 12V12.268L15.2322 12.134C15.7105 11.8578 16.3221 12.0217 16.5982 12.5C16.8743 12.9783 16.7105 13.5899 16.2322 13.866L16.0001 14L16.2322 14.1339C16.7105 14.4101 16.8743 15.0217 16.5982 15.5C16.3221 15.9783 15.7105 16.1421 15.2322 15.866L15.0001 15.732V16C15.0001 16.5523 14.5524 17 14.0001 17C13.4478 17 13.0001 16.5523 13.0001 16V15.7321L12.7681 15.866C12.2898 16.1422 11.6782 15.9783 11.4021 15.5C11.1259 15.0217 11.2898 14.4101 11.7681 14.134L12.0001 14L11.7681 13.866C11.2898 13.5899 11.1259 12.9783 11.402 12.5C11.6782 12.0217 12.2898 11.8578 12.7681 12.1339L13.0001 12.2679V12C13.0001 11.4477 13.4478 11 14.0001 11Z" fill="white"/>
</svg>
