<svg xmlns="http://www.w3.org/2000/svg" viewBox="0 0 1200 800">
  <defs>
    <linearGradient id="bg4" x1="0" x2="1" y1="0" y2="1">
      <stop offset="0%" stop-color="#0f2039"/>
      <stop offset="100%" stop-color="#1b3b61"/>
    </linearGradient>
  </defs>
  <rect width="1200" height="800" fill="url(#bg4)"/>
  <circle cx="330" cy="300" r="70" fill="#9be7ff" fill-opacity=".28"/>
  <circle cx="470" cy="320" r="86" fill="#9be7ff" fill-opacity=".2"/>
  <circle cx="620" cy="305" r="68" fill="#9be7ff" fill-opacity=".28"/>
  <path d="M830 260l78 78 162-170" fill="none" stroke="#9be7ff" stroke-width="30" stroke-linecap="round" stroke-linejoin="round"/>
  <rect x="760" y="170" width="320" height="260" rx="40" fill="none" stroke="#9be7ff" stroke-opacity=".5" stroke-width="14"/>
  <path d="M300 520v160M450 520v160M600 520v160M750 520v160M900 520v160" stroke="#9be7ff" stroke-opacity=".55" stroke-width="14" stroke-linecap="round"/>
  <path d="M300 700c0 26 20 46 46 46s46-20 46-46c0-18-16-38-46-72-30 34-46 54-46 72z" fill="#9be7ff" fill-opacity=".4"/>
  <path d="M600 700c0 26 20 46 46 46s46-20 46-46c0-18-16-38-46-72-30 34-46 54-46 72z" fill="#9be7ff" fill-opacity=".32"/>
  <path d="M900 700c0 26 20 46 46 46s46-20 46-46c0-18-16-38-46-72-30 34-46 54-46 72z" fill="#9be7ff" fill-opacity=".24"/>
</svg>
