<svg xmlns="http://www.w3.org/2000/svg" viewBox="0 0 1200 800">
  <defs>
    <linearGradient id="bg3" x1="0" x2="1" y1="0" y2="1">
      <stop offset="0%" stop-color="#10213b"/>
      <stop offset="100%" stop-color="#1b395f"/>
    </linearGradient>
  </defs>
  <rect width="1200" height="800" fill="url(#bg3)"/>
  <path d="M170 500l820-250-290 320-170-110-170 140z" fill="#7ec8ff" fill-opacity=".18" stroke="#9be7ff" stroke-opacity=".7" stroke-width="10"/>
  <path d="M530 460l120 76" stroke="#9be7ff" stroke-width="16" stroke-linecap="round"/>
  <path d="M750 520c50-36 118-36 168 0M770 574c38-26 90-26 128 0M790 628c24-16 56-16 80 0" fill="none" stroke="#9be7ff" stroke-opacity=".75" stroke-width="14" stroke-linecap="round"/>
  <rect x="130" y="170" width="520" height="60" rx="30" fill="#173151" stroke="#9be7ff" stroke-opacity=".45"/>
  <rect x="160" y="190" width="300" height="18" rx="9" fill="#9be7ff" fill-opacity=".35"/>
  <circle cx="610" cy="200" r="16" fill="#9be7ff"/>
  <circle cx="930" cy="200" r="14" fill="#9be7ff" fill-opacity=".65"/>
  <circle cx="980" cy="200" r="14" fill="#9be7ff" fill-opacity=".45"/>
  <circle cx="1030" cy="200" r="14" fill="#9be7ff" fill-opacity=".25"/>
</svg>
